PathFileType	4	(X/Y/Z)	s02c0302.trc
DataRate	CameraRate	NumFrames	NumMarkers	Units	OrigDataRate	OrigDataStartFrame	OrigNumFrames
200	200	6	51	mm	200	250	2000
Frame#	Time	racr			lacr			c7			jug			rlel			rdr			llel			ldr			s2			lic			ric			lasi			rasi			rpsi			lpsi			rgt			lgt			rth1			rth2			rth3			rth4			rlfc			rmfc			rsh1			rsh2			rsh3			rsh4			rlmal			rmmal			rcal			rtoe			rmt5			rmt1			lth1			lth2			lth4			lth3			llfc			lmfc			lsh1			lsh2			lsh3			lsh4			llmal			lmmal			lcal			ltoe			lmt5			SBIKE			LBIKE			RBIKE			
		X1	Y1	Z1	X2	Y2	Z2	X3	Y3	Z3	X4	Y4	Z4	X5	Y5	Z5	X6	Y6	Z6	X7	Y7	Z7	X8	Y8	Z8	X9	Y9	Z9	X10	Y10	Z10	X11	Y11	Z11	X12	Y12	Z12	X13	Y13	Z13	X14	Y14	Z14	X15	Y15	Z15	X16	Y16	Z16	X17	Y17	Z17	X18	Y18	Z18	X19	Y19	Z19	X20	Y20	Z20	X21	Y21	Z21	X22	Y22	Z22	X23	Y23	Z23	X24	Y24	Z24	X25	Y25	Z25	X26	Y26	Z26	X27	Y27	Z27	X28	Y28	Z28	X29	Y29	Z29	X30	Y30	Z30	X31	Y31	Z31	X32	Y32	Z32	X33	Y33	Z33	X34	Y34	Z34	X35	Y35	Z35	X36	Y36	Z36	X37	Y37	Z37	X38	Y38	Z38	X39	Y39	Z39	X40	Y40	Z40	X41	Y41	Z41	X42	Y42	Z42	X43	Y43	Z43	X44	Y44	Z44	X45	Y45	Z45	X46	Y46	Z46	X47	Y47	Z47	X48	Y48	Z48	X49	Y49	Z49	X50	Y50	Z50	X51	Y51	Z51	
250	1.2500	486.106674	1278.234223	-136.109062	497.276111	1276.685014	-481.239986	516.429497	1298.267404	-312.698608	447.619683	1178.138350	-309.986668	605.860393	1036.939716	-119.113285	734.445181	845.111397	-140.248500	579.380430	1019.512820	-539.148902	721.473444	837.358993	-487.302397	-0.059019	1122.084594	-342.585851	139.339484	1088.700863	-466.310091	117.586632	1106.177663	-182.997014	181.597919	1051.636383	-437.248808	169.074608	1082.658126	-212.033523	11.762286	1145.488840	-292.479307	31.011829	1146.015410	-382.192271	84.583651	1044.822589	-138.611199	79.085541	1003.109170	-502.313992	173.843473	1017.328541	-135.092295	261.158937	1005.978253	-143.066546	332.717392	965.394135	-118.004515	271.129328	1027.548327	-172.844801	453.967049	876.122470	-151.605495	449.694903	855.352683	-262.748951	443.757618	763.165096	-135.248679	433.314552	675.392229	-154.543797	389.106145	602.704185	-148.155842	449.170968	673.734680	-190.197686	340.896873	494.137779	-154.271715	349.345661	513.962767	-233.937317	265.979465	447.874102	-197.911812	550.035841	425.721555	-194.170290	440.827180	414.349973	-136.305857	468.365923	426.995878	-243.982791	184.908999	907.936346	-516.885899	255.946136	857.664265	-513.154740	280.596816	878.206568	-495.013825	291.162689	775.638085	-512.997154	347.889362	692.020147	-488.607389	348.435454	664.247338	-384.050508	298.377078	600.664606	-506.548904	265.262320	522.615205	-489.261628	194.804994	466.314231	-492.356362	281.946596	514.322840	-452.917641	119.710977	396.508907	-474.990818	134.317956	384.740174	-398.714059	42.034447	392.455088	-434.607690	250.086564	195.469275	-443.672810	154.062166	247.173947	-502.895878	-129.542404	869.358529	-314.563438	32.481728	82.241569	-515.335357	32.816045	81.970587	-115.415670	
251	1.2550	486.161735	1278.266984	-136.189390	497.263697	1276.706962	-481.242900	516.467415	1298.208627	-312.777221	447.646177	1178.156490	-310.063882	605.944166	1036.986992	-119.123588	734.445288	845.109850	-140.236638	579.421541	1019.539722	-539.057822	721.492722	837.360697	-487.310186	-0.050450	1122.211364	-342.707351	139.260208	1088.751685	-466.319604	117.654401	1106.138400	-183.006250	181.545136	1051.669938	-437.350431	169.111151	1082.619889	-212.122630	11.771005	1145.516292	-292.395202	30.777439	1145.954485	-381.993628	84.600353	1044.793468	-138.590592	78.957943	1003.242526	-502.343305	173.838621	1017.295710	-135.098693	261.147539	1005.924737	-143.050894	332.695662	965.327283	-118.020922	271.126200	1027.519362	-172.863067	453.934634	876.041502	-151.652533	449.636636	855.304356	-262.783185	443.691826	763.114580	-135.274746	433.222337	675.310019	-154.579081	388.989201	602.654919	-148.185766	449.050601	673.670290	-190.261664	340.736671	494.102299	-154.259523	349.227547	513.931574	-233.944954	265.869192	447.783356	-197.888796	549.946082	425.889355	-194.175809	440.755552	414.394465	-136.313310	468.293858	427.083999	-243.995069	184.817169	908.090545	-516.961647	255.997198	857.884610	-513.368192	280.636158	878.451463	-495.261380	291.246167	775.930880	-513.096092	347.968849	692.333061	-488.651832	348.610457	664.442327	-384.016922	298.604969	600.894163	-506.619981	265.593369	522.785987	-489.311041	195.172600	466.432115	-492.414200	282.278301	514.489707	-452.982256	120.175925	396.522157	-475.072358	134.772523	384.711986	-398.777175	42.522561	392.634572	-434.585017	250.078803	195.163326	-443.684714	154.219530	247.093391	-502.933941	-129.527506	869.369017	-314.564608	32.475285	82.240300	-515.336569	32.805034	81.989766	-115.427476	
252	1.2600	486.205822	1278.317059	-136.271958	497.259565	1276.735190	-481.267977	516.511969	1298.123166	-312.864395	447.651244	1178.145533	-310.117549	606.012568	1037.038670	-119.132867	734.472336	845.119729	-140.201977	579.429077	1019.531705	-539.196077	721.523515	837.367195	-487.306827	-0.043082	1122.338134	-342.828750	139.181110	1088.812352	-466.348339	117.687856	1106.106218	-183.015327	181.493096	1051.690708	-437.462634	169.128773	1082.580740	-212.161368	11.764850	1145.556030	-292.316103	30.699749	1146.061715	-381.887478	84.616288	1044.783112	-138.573908	78.853586	1003.391162	-502.355746	173.834767	1017.273767	-135.109580	261.132148	1005.859805	-143.078308	332.679846	965.297471	-118.038394	271.114107	1027.493054	-172.870500	453.905524	875.995423	-151.702218	449.564599	855.254360	-262.848394	443.268066	763.063133	-135.616976	433.150958	675.290030	-154.632651	388.940727	602.578997	-148.149321	448.999111	673.637176	-190.265554	340.650623	494.049454	-154.308268	349.124661	513.888990	-233.935646	265.812121	447.681037	-197.891601	549.882846	425.992242	-194.163648	440.716995	414.429761	-136.318405	468.277763	427.249739	-244.098840	184.769698	908.301006	-517.017371	255.929901	858.267721	-513.304658	280.523667	878.811315	-495.119778	291.320505	776.253645	-513.173320	348.119993	692.563086	-488.732382	348.807284	664.653122	-384.090793	298.832246	601.102345	-506.671033	265.915752	522.940930	-489.356792	195.506997	466.562953	-492.481035	282.556818	514.638781	-453.029269	120.596415	396.524268	-475.125322	135.194807	384.743075	-398.835286	42.971199	392.805786	-434.591002	250.052601	194.905848	-443.677730	154.327650	247.030912	-502.944061	-129.523925	869.368654	-314.564302	32.493536	82.257992	-515.328585	32.801041	81.982833	-115.406658	
253	1.2650	486.236097	1278.356133	-136.356358	497.254056	1276.743783	-481.276577	516.522776	1298.053939	-312.937424	447.605554	1178.112341	-310.202033	606.081154	1037.072364	-119.175489	734.491905	845.125924	-140.191212	579.476860	1019.594370	-538.948125	721.539640	837.378985	-487.305670	-0.036905	1122.464906	-342.950015	139.090731	1088.862870	-466.379143	117.735457	1106.070734	-183.025024	181.420294	1051.728235	-437.542379	169.146674	1082.539435	-212.209552	11.783001	1145.622016	-292.208089	30.626927	1146.109164	-381.748816	84.634106	1044.729567	-138.554552	78.780578	1003.516374	-502.388109	173.796355	1017.270958	-135.116845	261.113505	1005.848133	-143.101510	332.653084	965.267772	-118.078321	271.079557	1027.484664	-172.880919	453.854402	875.968312	-151.746373	449.492837	855.233512	-262.866763	443.218618	763.042607	-135.654838	433.456497	675.458645	-154.321237	388.884869	602.551292	-148.177283	448.392545	673.454762	-190.506124	340.562480	494.024919	-154.322428	349.046582	513.858435	-233.947176	265.764770	447.607808	-197.882871	549.858037	426.045793	-194.153748	440.679271	414.450445	-136.315646	468.258509	427.272473	-244.095411	184.765769	908.546711	-517.084320	255.941392	858.565690	-513.369446	280.524968	879.084067	-495.157126	291.418427	776.553476	-513.227462	348.249969	692.715546	-488.861611	349.004124	664.859933	-384.109420	299.031476	601.273005	-506.748856	266.146904	523.081977	-489.407428	195.796597	466.651310	-492.508554	282.835645	514.787379	-453.096118	120.939972	396.551620	-475.181529	135.569816	384.780899	-398.851702	43.345570	392.998661	-434.608401	250.026725	194.700049	-443.690753	154.477581	247.240469	-503.589654	-129.534054	869.365781	-314.550513	32.490350	82.219494	-515.332072	32.447875	82.130771	-115.508941	
254	1.2700	486.294150	1278.396354	-136.463666	497.241788	1276.751567	-481.280011	516.544578	1297.980877	-313.016319	447.523793	1178.118825	-310.300324	606.148169	1037.117437	-119.243526	734.528800	845.129072	-140.201439	579.444898	1019.584362	-539.147961	721.550197	837.403843	-487.346569	-0.031905	1122.591801	-343.071149	139.029291	1088.905655	-466.429280	117.774997	1106.010354	-183.034129	181.398632	1051.762503	-437.617799	169.168643	1082.493025	-212.283686	11.780245	1145.644496	-292.148712	30.600396	1146.142015	-381.632820	84.639307	1044.705030	-138.526022	78.744462	1003.651672	-502.432947	173.812413	1017.267326	-135.134783	261.094100	1005.833435	-143.114362	332.639059	965.251291	-118.107047	271.061651	1027.478990	-172.930608	453.837126	875.951137	-151.820630	449.424218	855.196875	-262.918689	443.189687	763.030856	-135.708679	433.061007	675.249805	-154.711516	388.870592	602.531544	-148.216935	448.936526	673.619094	-190.338767	340.557999	493.989721	-154.345114	349.051128	513.819535	-233.963823	265.755548	447.595109	-197.883381	549.863030	426.044355	-194.168507	440.666340	414.435837	-136.318013	468.242061	427.264481	-244.098536	184.784504	908.770554	-517.088325	255.992219	858.778551	-513.373007	280.564171	879.346218	-495.170830	291.492394	776.835907	-513.267749	348.346048	692.931993	-488.966908	349.209909	665.047125	-384.181248	299.212277	601.430829	-506.836199	266.324032	523.188683	-489.448368	196.045595	466.751048	-492.557808	283.071633	514.939889	-453.155258	121.253051	396.591100	-475.232618	135.931290	384.807814	-398.926898	43.763727	393.138721	-434.710225	250.012366	194.552895	-443.674381	154.485951	247.149931	-503.517296	-129.531987	869.368727	-314.541401	32.478801	82.239946	-515.333302	32.792497	81.988464	-115.421789	
255	1.2750	486.335249	1278.393710	-136.558879	497.224052	1276.759589	-481.284040	516.576753	1297.906096	-313.082078	447.498063	1178.118267	-310.408493	606.212158	1037.144592	-119.308513	734.524950	845.125887	-140.188383	579.441726	1019.582417	-539.161222	721.555469	837.416196	-487.350873	-0.028072	1122.718575	-343.192119	138.985887	1088.940809	-466.443867	117.805590	1105.993329	-183.040792	181.369903	1051.818832	-437.697158	169.162936	1082.473178	-212.320622	11.735186	1145.685313	-292.043297	30.547216	1146.167153	-381.519599	84.646505	1044.660158	-138.520179	78.713729	1003.751915	-502.437371	173.790814	1017.268065	-135.133938	261.080963	1005.850151	-143.129555	332.627160	965.260832	-118.140509	271.026708	1027.479902	-172.923860	453.795538	875.964650	-151.853605	449.375533	855.194683	-262.946613	443.160300	763.022664	-135.738794	433.451632	675.436864	-154.420181	388.903835	602.513075	-148.242685	448.366498	673.429429	-190.585085	340.579357	493.974817	-154.328639	349.071576	513.815368	-233.987183	265.779728	447.584840	-197.892317	549.870222	426.001681	-194.162562	440.694815	414.416039	-136.324282	468.261956	427.215535	-244.105180	184.865772	908.975534	-517.078360	256.057646	858.981748	-513.371703	280.636633	879.544721	-495.147424	291.587555	777.037820	-513.302443	348.487330	693.084453	-489.067642	349.374636	665.177108	-384.233751	299.349028	601.545516	-506.914534	266.453736	523.318774	-489.509772	196.199766	466.852581	-492.614825	283.234342	515.056970	-453.224876	121.464061	396.665753	-475.296146	136.129160	384.837827	-398.975154	43.911733	393.359601	-434.668100	249.991811	194.467954	-443.673835	154.501023	247.143013	-503.509133	-129.525588	869.366973	-314.560976	32.484104	82.229422	-515.311286	32.787667	82.006169	-115.418593	
